<svg width="70" height="70" viewBox="0 0 70 70" fill="none" xmlns="http://www.w3.org/2000/svg">
<path d="M55.3229 28.2258V10.3927C55.3229 4.66177 50.6611 0 44.9302 0C42.4734 0 40.1781 0.801613 38.4642 2.25806C37.5824 3.00774 36.4173 3.3871 35.0003 3.3871C33.5834 3.3871 32.4182 3.00774 31.5364 2.25806C29.8226 0.801613 27.5273 0 25.0705 0C19.3395 0 14.6777 4.66177 14.6777 10.3927V28.2258C14.6777 29.6552 15.5392 31.7055 19.5235 33.4702C19.3147 34.2176 19.1939 35.0023 19.1939 35.8152V38.3871H15.4624L22.984 66.3273C23.5677 68.4894 25.5379 70 27.779 70C30.5147 70 32.7423 67.7724 32.7423 65.0356V54.1936C32.7423 52.9482 33.755 51.9355 35.0003 51.9355C36.2456 51.9355 37.2584 52.9482 37.2584 54.1936V65.0356C37.2584 67.7724 39.486 70 42.2216 70C44.4616 70 46.4318 68.4893 47.0155 66.3261L54.5382 38.3871H50.8068V35.8152C50.8068 35.0023 50.686 34.2176 50.4771 33.4713C54.4614 31.7055 55.3229 29.6552 55.3229 28.2258ZM51.5914 40.6452L44.8353 65.739C44.5181 66.9189 43.4443 67.7419 42.2216 67.7419C40.7302 67.7419 39.5164 66.5282 39.5164 65.0356V54.1936C39.5164 51.7029 37.491 49.6774 35.0003 49.6774C32.5097 49.6774 30.4842 51.7029 30.4842 54.1936V65.0356C30.4842 66.5282 29.2705 67.7419 27.779 67.7419C26.5574 67.7419 25.4837 66.9189 25.1664 65.7402L18.4092 40.6452H44.0326V38.3871H21.4519V35.8152C21.4519 32.2531 24.349 29.3548 27.9123 29.3548C29.1677 29.3548 30.3577 29.6992 31.3524 30.3484C33.9153 32.0261 36.0876 32.0261 38.6482 30.3484C39.644 29.6981 40.834 29.3548 42.0895 29.3548C45.6516 29.3548 48.5487 32.2531 48.5487 35.8152V38.3871H46.2906V40.6452H51.5914ZM49.5885 31.3927C48.07 28.8265 45.2813 27.0968 42.0884 27.0968C40.3926 27.0968 38.7758 27.5676 37.4108 28.4595C36.5177 29.0455 35.6823 29.3548 35.0003 29.3548C34.3184 29.3548 33.4829 29.0455 32.5876 28.4595C31.2237 27.5676 29.6081 27.0968 27.9123 27.0968C24.7205 27.0968 21.9318 28.8265 20.4121 31.3927C18.2342 30.4195 16.9358 29.251 16.9358 28.2258C16.9358 26.1123 22.0402 23.4918 30.5802 22.7658L30.6863 22.7579L35.0003 27.6827L39.3098 22.7579L39.4205 22.7658C47.9605 23.4918 53.0648 26.1123 53.0648 28.2258C53.0648 29.251 51.7664 30.4195 49.5885 31.3927ZM53.0648 24.4266C50.3676 22.4113 45.6516 21.201 41.1355 20.6715L45.3919 15.8065H38.3874V9.03226H36.1293V18.0645H40.4152L35.0003 24.2527L29.5855 18.0645H33.8713V9.03226H31.6132V15.8065H24.6087L28.8652 20.6715C24.349 21.2021 19.6331 22.4113 16.9358 24.4266V10.3927C16.9358 5.9071 20.5848 2.25806 25.0705 2.25806C26.991 2.25806 28.7681 2.86887 30.0743 3.97758C31.375 5.08403 33.0324 5.64516 35.0003 5.64516C36.9682 5.64516 38.6256 5.08403 39.9263 3.97871C41.2326 2.86887 43.0097 2.25806 44.9302 2.25806C49.4158 2.25806 53.0648 5.9071 53.0648 10.3927V24.4266Z" fill="#468FBC"/>
<path d="M19.1934 10.3927H21.4514C21.4514 8.39773 23.075 6.77418 25.07 6.77418V4.51611C21.8296 4.51611 19.1934 7.1524 19.1934 10.3927Z" fill="#468FBC"/>
<path d="M44.9297 4.51611V6.77418C46.9247 6.77418 48.5482 8.39773 48.5482 10.3927H50.8063C50.8063 7.1524 48.17 4.51611 44.9297 4.51611Z" fill="#468FBC"/>
</svg>
