<svg width="70" height="70" viewBox="0 0 70 70" fill="none" xmlns="http://www.w3.org/2000/svg">
<g clip-path="url(#clip0)">
<path d="M15.8069 22.3943V22.0161H13.5488V22.3943C13.5488 23.0413 13.5658 23.6882 13.5985 24.3318L15.8543 24.2166C15.8238 23.6103 15.8069 23.004 15.8069 22.3943Z" fill="#468FBC"/>
<path d="M16.0334 26.4036L13.79 26.6599C14.4358 32.3468 16.4184 37.905 19.5221 42.7316L21.4212 41.51C18.5038 36.9724 16.642 31.7484 16.0334 26.4036Z" fill="#468FBC"/>
<path d="M41.6169 10.9651C39.6614 12.2861 37.3729 12.9839 34.9996 12.9839C32.6264 12.9839 30.339 12.2861 28.3835 10.9663L27.1201 12.8382C29.4504 14.411 32.1748 15.2419 34.9996 15.2419C37.8245 15.2419 40.5488 14.411 42.8803 12.8371L41.6169 10.9651Z" fill="#468FBC"/>
<path d="M10.1613 43.4678H7.90323C7.90323 47.8247 4.35694 51.371 0 51.371V53.6291C4.35694 53.6291 7.90323 57.1754 7.90323 61.5323H10.1613C10.1613 57.1754 13.7076 53.6291 18.0645 53.6291V51.371C13.7076 51.371 10.1613 47.8247 10.1613 43.4678ZM9.03226 56.8976C8.06129 55.0121 6.52016 53.471 4.63468 52.5C6.52016 51.5291 8.06129 49.9879 9.03226 48.1024C10.0032 49.9879 11.5444 51.5291 13.4298 52.5C11.5444 53.471 10.0032 55.0121 9.03226 56.8976Z" fill="#468FBC"/>
<path d="M62.0967 14.1129H59.9346C57.7963 8.79401 52.5621 5.08063 46.6313 5.08063C43.8313 5.08063 41.1984 5.83821 39.0171 7.26982C36.6021 8.8595 33.399 8.8595 30.9829 7.26982C28.8027 5.83821 26.1698 5.08063 23.3687 5.08063C15.4632 5.08063 9.03223 11.5116 9.03223 19.4171V22.3943C9.03223 30.4895 11.3467 38.3656 15.724 45.1748C18.0792 48.8385 19.8088 52.8387 20.8656 57.0635L22.094 61.9793C22.5253 63.7113 24.0732 64.9193 25.8571 64.9193C27.7934 64.9193 29.4079 63.5295 29.6935 61.6147L32.2259 44.7266C32.4348 43.3435 33.6011 42.3387 35 42.3387C36.3988 42.3387 37.5651 43.3435 37.7729 44.7266L40.3053 61.6147C40.5921 63.5295 42.2066 64.9193 44.1429 64.9193C45.9267 64.9193 47.4746 63.7113 47.9059 61.9793L49.1355 57.0635C50.1922 52.8376 51.923 48.8374 54.2782 45.1748C56.8513 41.1713 58.7334 36.7003 59.8342 32.06C59.833 32.0995 59.8387 32.1379 59.8387 32.1774H62.0967C62.0967 27.8205 65.643 24.2742 70 24.2742V22.0161C65.643 22.0161 62.0967 18.4698 62.0967 14.1129ZM52.378 43.9532C49.8885 47.8258 48.0617 52.0529 46.9451 56.5171L45.7145 61.4329C45.535 62.1566 44.888 62.6613 44.1429 62.6613C43.3334 62.6613 42.6593 62.0798 42.5396 61.2793L40.0072 44.3913C39.6324 41.8927 37.5256 40.0806 35 40.0806C32.4743 40.0806 30.3675 41.8927 29.9927 44.3913L27.4603 61.2793C27.3417 62.0798 26.6666 62.6613 25.8571 62.6613C25.1119 62.6613 24.465 62.1566 24.2832 61.4329L23.0537 56.5171C21.9382 52.0518 20.1103 47.8247 17.6208 43.9532C13.4795 37.5098 11.2903 30.0548 11.2903 22.3943V19.4171C11.2903 12.7569 16.7085 7.33869 23.3687 7.33869C25.7272 7.33869 27.9311 7.96756 29.7421 9.15756C31.3238 10.1974 33.0942 10.7258 35 10.7258C36.9058 10.7258 38.6761 10.1974 40.2567 9.15756C42.0688 7.96756 44.2727 7.33869 46.6313 7.33869C52.588 7.33869 57.7274 11.7769 58.5742 17.5722L58.6216 18.3072C57.2216 20.5303 54.7513 22.0161 51.9355 22.0161V24.2742C54.5864 24.2742 56.9314 25.5906 58.3653 27.5992C57.6032 33.3889 55.5348 39.0419 52.378 43.9532ZM60.9677 27.5427C59.9967 25.6572 58.4556 24.1161 56.5701 23.1451C58.4556 22.1742 59.9967 20.633 60.9677 18.7476C61.9387 20.633 63.4798 22.1742 65.3653 23.1451C63.4798 24.1161 61.9387 25.6572 60.9677 27.5427Z" fill="#468FBC"/>
</g>
<defs>
<clipPath id="clip0">
<rect width="70" height="70" fill="white"/>
</clipPath>
</defs>
</svg>
