<svg width="80" height="80" viewBox="0 0 80 80" fill="none" xmlns="http://www.w3.org/2000/svg">
<path d="M46.6638 30.2063C45.2393 29.6807 42.1119 29.2484 40.3684 30.7481C36.7099 28.7262 33.7998 29.0217 31.3874 31.6008C27.4972 35.787 29.2937 40.0186 30.9709 41.8647C31.9879 42.9788 32.2782 43.6014 32.4382 44.3228C32.4668 44.4477 32.5476 44.8749 32.5579 45.0259C32.8508 51.9657 35.3077 52.8509 36.189 52.9395C36.3845 52.9916 36.5782 53.0152 36.7685 53.0152C37.1577 53.0152 37.5314 52.9112 37.8701 52.7004C39.2476 51.8618 39.6188 49.5414 39.9493 47.4973C39.9767 47.3386 40.0002 47.1851 40.0263 47.0341C40.2115 49.2681 40.5981 52.6457 43.258 52.9399C43.5394 52.9921 44.0757 53.0156 44.6906 52.6435C45.956 51.8776 46.8259 49.9143 47.3621 46.6231L47.4352 46.1361C47.602 44.9951 47.8257 43.4222 48.7109 42.4981C50.2107 40.9252 51.4218 37.4839 50.7683 34.6675C50.2782 32.5549 48.8512 31.0132 46.6638 30.2063ZM47.132 41C45.7756 42.4267 45.4813 44.4708 45.2833 45.8252L45.2183 46.2729C44.6119 49.9836 43.7267 50.6789 43.5522 50.7884C43.5394 50.7833 43.5287 50.7833 43.5129 50.7833C42.4908 50.6948 42.2672 47.898 42.1628 46.5543C42.1196 46.0959 42.0914 45.6896 42.0431 45.377C41.9704 44.8587 41.3926 43.3927 40.2033 43.2884C39.248 43.2341 38.6292 43.8589 38.2037 45.1974C38.0433 45.6922 37.9343 46.3661 37.8051 47.1479C37.6567 48.0878 37.2543 50.5643 36.7022 50.8299C36.5979 50.7931 36.5812 50.7833 36.4939 50.7833C36.4837 50.7833 36.4717 50.7833 36.4589 50.7833C36.4456 50.7777 34.9497 50.2731 34.7231 44.9344C34.7149 44.7312 34.5956 44.0385 34.5499 43.8405C34.2805 42.6324 33.7258 41.6714 32.5733 40.4035C32.2449 40.0438 29.5015 36.8074 32.9744 33.0835C33.9285 32.0614 35.8375 30.0032 41.086 33.7814L38.9923 34.8347C38.6459 35.0079 38.4192 35.3491 38.3948 35.7409C38.3713 36.1304 38.5603 36.4961 38.8802 36.7146L41.0351 38.125L39.2292 40.0913C38.8272 40.5309 38.8528 41.2186 39.2955 41.6167C39.7355 42.023 40.4219 41.9999 40.8264 41.5568L43.4915 38.6587C43.7105 38.4243 43.8092 38.1066 43.7703 37.7889C43.731 37.4775 43.5565 37.1884 43.2884 37.0182L41.6424 35.9363L43.5954 34.957C43.9234 34.7915 44.1526 34.4661 44.189 34.1068C44.2309 33.7433 44.0851 33.3841 43.7986 33.1523C43.3222 32.7627 42.856 32.4027 42.4066 32.0742C43.4629 31.7355 45.0798 31.9438 45.9051 32.2474C47.4028 32.8021 48.3243 33.781 48.6446 35.1678C49.1634 37.3565 48.0746 40.0079 47.132 41ZM15.0523 59.1677H64.9439C65.5477 59.1677 66.0323 58.6806 66.0323 58.0896V26.2536C66.0323 25.6549 65.5452 25.1691 64.9439 25.1691H15.0523C14.4523 25.1691 13.9665 25.66 13.9665 26.2536V58.0875C13.9665 58.681 14.4523 59.1677 15.0523 59.1677ZM16.1368 27.3393H63.8628V56.9987H16.1368V27.3393ZM78.9116 18.3934H1.08451C0.485805 18.3934 0 18.8818 0 19.4724C0 20.0754 0.485805 20.5586 1.08451 20.5586H7.4577V61.2721C7.4577 63.699 9.43128 65.673 11.8543 65.673H68.1461C70.5653 65.673 72.5389 63.699 72.5389 61.2721V20.5586H78.9108C79.5146 20.5586 79.9966 20.0728 79.9966 19.4724C79.9974 18.8814 79.5103 18.3934 78.9116 18.3934ZM70.3758 61.2773C70.3758 62.5063 69.3756 63.5061 68.1465 63.5061H11.8573C10.6283 63.5061 9.63057 62.5063 9.63057 61.2773V20.5586H70.3754V61.2773H70.3758ZM0.00256587 15.4089C0.00256587 14.8089 0.488371 14.327 1.08878 14.327H78.9168C79.5155 14.327 80 14.8179 80 15.4089C80 16.0119 79.5103 16.4921 78.9168 16.4921H1.08836C0.488371 16.4977 0.00256587 16.0093 0.00256587 15.4089Z" fill="#468FBC"/>
</svg>
