<svg width="70" height="70" viewBox="0 0 70 70" fill="none" xmlns="http://www.w3.org/2000/svg">
<path d="M40.8308 26.4305C39.5844 25.9706 36.8479 25.5923 35.3224 26.9046C32.1212 25.1354 29.5748 25.394 27.464 27.6507C24.06 31.3136 25.632 35.0163 27.0995 36.6316C27.9894 37.6064 28.2434 38.1512 28.3834 38.7825C28.4085 38.8917 28.4792 39.2655 28.4882 39.3976C28.7445 45.47 30.8942 46.2446 31.6654 46.322C31.8364 46.3677 32.0059 46.3882 32.1724 46.3882C32.5129 46.3882 32.84 46.2973 33.1363 46.1128C34.3416 45.3791 34.6664 43.3487 34.9557 41.5601C34.9796 41.4213 35.0002 41.2869 35.023 41.1548C35.185 43.1096 35.5233 46.0649 37.8508 46.3224C38.097 46.368 38.5662 46.3886 39.1043 46.0631C40.2115 45.3929 40.9726 43.675 41.4419 40.7952L41.5058 40.369C41.6518 39.3707 41.8475 37.9944 42.6221 37.1858C43.9343 35.8095 44.994 32.7984 44.4223 30.334C43.9935 28.4855 42.7448 27.1366 40.8308 26.4305ZM41.2405 35.875C40.0536 37.1233 39.7962 38.9119 39.6229 40.097L39.566 40.4888C39.0354 43.7356 38.2609 44.344 38.1082 44.4398C38.097 44.4353 38.0876 44.4353 38.0738 44.4353C37.1795 44.3579 36.9838 41.9107 36.8925 40.735C36.8547 40.3339 36.83 39.9784 36.7877 39.7048C36.7241 39.2513 36.2185 37.9686 35.1779 37.8773C34.342 37.8298 33.8005 38.3765 33.4282 39.5477C33.2879 39.9806 33.1925 40.5703 33.0795 41.2544C32.9496 42.0768 32.5975 44.2438 32.1144 44.4761C32.0231 44.444 32.0085 44.4353 31.9322 44.4353C31.9232 44.4353 31.9127 44.4353 31.9015 44.4353C31.8899 44.4305 30.581 43.9889 30.3827 39.3176C30.3756 39.1398 30.2712 38.5336 30.2311 38.3604C29.9954 37.3033 29.5101 36.4625 28.5016 35.353C28.2143 35.0383 25.8138 32.2065 28.8526 28.948C29.6874 28.0537 31.3578 26.2527 35.9503 29.5587L34.1182 30.4803C33.8151 30.6319 33.6168 30.9305 33.5955 31.2732C33.5749 31.6141 33.7403 31.9341 34.0202 32.1253L35.9057 33.3593L34.3255 35.0799C33.9738 35.4645 33.9962 36.0662 34.3835 36.4146C34.7686 36.7701 35.3691 36.7499 35.7231 36.3622L38.0551 33.8263C38.2467 33.6213 38.3331 33.3432 38.299 33.0652C38.2646 32.7928 38.1119 32.5399 37.8773 32.3909L36.4371 31.4442L38.146 30.5873C38.433 30.4425 38.6336 30.1578 38.6654 29.8435C38.702 29.5254 38.5744 29.2111 38.3237 29.0083C37.9069 28.6674 37.499 28.3523 37.1058 28.0649C38.03 27.7686 39.4448 27.9508 40.167 28.2165C41.4774 28.7018 42.2838 29.5583 42.5641 30.7718C43.0179 32.6869 42.0653 35.0069 41.2405 35.875ZM13.1707 51.7717H56.8259C57.3543 51.7717 57.7782 51.3455 57.7782 50.8284V22.9718C57.7782 22.448 57.352 22.0229 56.8259 22.0229H13.1707C12.6457 22.0229 12.2207 22.4525 12.2207 22.9718V50.8265C12.2207 51.3459 12.6457 51.7717 13.1707 51.7717ZM14.1197 23.9219H55.88V49.8738H14.1197V23.9219ZM69.0477 16.0942H0.948944C0.425079 16.0942 0 16.5216 0 17.0383C0 17.5659 0.425079 17.9888 0.948944 17.9888H6.52549V53.6131C6.52549 55.7366 8.25237 57.4639 10.3725 57.4639H59.6278C61.7446 57.4639 63.4715 55.7366 63.4715 53.6131V17.9888H69.0469C69.5753 17.9888 69.997 17.5637 69.997 17.0383C69.9978 16.5212 69.5716 16.0942 69.0477 16.0942ZM61.5789 53.6176C61.5789 54.693 60.7036 55.5679 59.6282 55.5679H10.3752C9.29973 55.5679 8.42675 54.693 8.42675 53.6176V17.9888H61.5785V53.6176H61.5789ZM0.00224514 13.4828C0.00224514 12.9578 0.427324 12.5361 0.952686 12.5361H69.0522C69.576 12.5361 70 12.9656 70 13.4828C70 14.0104 69.5715 14.4306 69.0522 14.4306H0.952312C0.427324 14.4355 0.00224514 14.0081 0.00224514 13.4828Z" fill="#468FBC"/>
</svg>
