<svg width="42" height="42" viewBox="0 0 42 42" fill="none" xmlns="http://www.w3.org/2000/svg">
<path d="M36.75 7.875H5.25C4.55381 7.875 3.88613 8.15156 3.39384 8.64384C2.90156 9.13613 2.625 9.80381 2.625 10.5V31.5C2.625 32.1962 2.90156 32.8639 3.39384 33.3562C3.88613 33.8484 4.55381 34.125 5.25 34.125H36.75C37.4462 34.125 38.1139 33.8484 38.6062 33.3562C39.0984 32.8639 39.375 32.1962 39.375 31.5V10.5C39.375 9.80381 39.0984 9.13613 38.6062 8.64384C38.1139 8.15156 37.4462 7.875 36.75 7.875ZM33.8625 10.5L21 19.3987L8.1375 10.5H33.8625ZM5.25 31.5V11.6944L20.2519 22.0763C20.4716 22.2287 20.7326 22.3103 21 22.3103C21.2674 22.3103 21.5284 22.2287 21.7481 22.0763L36.75 11.6944V31.5H5.25Z" fill="black"/>
</svg>
