<svg width="70" height="70" viewBox="0 0 70 70" fill="none" xmlns="http://www.w3.org/2000/svg">
<g clip-path="url(#clip0)">
<path d="M35.1406 27.2717H35.1391C34.3844 27.2717 33.7719 27.8898 33.7705 28.6513C33.7705 29.4116 34.3844 30.031 35.1391 30.031C35.891 30.031 36.5049 29.4128 36.5049 28.6527C36.5063 28.2829 36.3641 27.9366 36.1057 27.6758C35.8474 27.4165 35.5056 27.2731 35.1406 27.2717Z" fill="#468FBC"/>
<path d="M69.9914 42.8635C70.1535 40.3963 67.929 38.354 67.2434 37.7869C66.7035 37.3401 66.1404 36.985 65.5637 36.7206C66.1949 35.4815 66.4317 33.4741 64.8952 30.3801C63.9688 28.5149 61.791 26.6111 59.5029 26.1566C59.5602 25.6498 59.4965 25.1992 59.4078 24.8555C58.7563 22.331 55.4124 20.3443 53.5622 20.2881C53.0905 20.2743 52.1878 20.3126 51.3399 20.7163L51.097 20.6604C51.097 20.6604 48.595 20.2465 48.435 20.1209C48.2834 20.0022 48.2368 19.9209 48.1986 19.8409C48.1549 19.743 48.1342 19.6228 48.133 19.4767C48.129 19.1635 48.256 18.7496 48.3654 18.4888C48.4351 18.3218 48.5035 18.1893 48.5377 18.1245C48.5554 18.0928 48.5719 18.0625 48.5883 18.0348L48.5951 18.0239C48.5966 18.0212 48.598 18.0197 48.598 18.0184C48.926 17.4941 48.8646 16.8085 48.4489 16.3503C48.1904 16.0661 47.8228 15.9034 47.4413 15.9034C47.2224 15.9034 47.0052 15.9573 46.8097 16.0593C46.6988 16.1172 46.5923 16.1696 46.4898 16.2166C45.9578 16.4622 45.4931 16.5863 45.1062 16.5863H45.1033C44.6892 16.5781 44.4826 16.4719 44.2448 16.2787C43.9195 16.0125 43.5913 15.4219 43.4068 14.7763C43.3165 14.4741 43.2631 14.2037 43.2344 14.0298C43.2195 13.9347 43.2097 13.8615 43.2043 13.8146C43.2015 13.794 43.2002 13.7788 43.1988 13.7691L43.1974 13.765C43.1537 13.2352 42.8228 12.7868 42.332 12.5936C42.1721 12.5315 42.0052 12.4998 41.8344 12.4998C41.4911 12.4998 41.1631 12.6295 40.91 12.864C39.9366 13.7566 39.2941 13.867 38.8963 13.8726C38.5709 13.8712 38.2646 13.7856 37.9283 13.6022C37.3349 13.2835 36.8496 12.7095 36.6678 12.4778C36.5037 12.2722 36.3805 12.0873 36.3054 11.9686C36.2658 11.9052 36.2357 11.8569 36.2193 11.828L36.2097 11.8114C36.2056 11.8046 36.2043 11.8003 36.2015 11.7976C36.2015 11.7962 36.2015 11.7962 36.2002 11.7949C35.9636 11.3548 35.5082 11.0789 35.0121 11.0748H34.9998C34.5075 11.0748 34.051 11.3438 33.809 11.777C33.3537 12.5882 32.8506 13.1745 32.3133 13.5209C31.9045 13.7803 31.5122 13.8976 31.0392 13.9017H31.0213C30.4937 13.9017 29.8482 13.7085 29.2523 13.3719C28.9898 13.2256 28.7847 13.0822 28.6574 12.9884C28.6041 12.9484 28.5535 12.9084 28.507 12.8711C28.492 12.8587 28.481 12.849 28.4769 12.8449L28.4741 12.8435C28.2254 12.6227 27.9039 12.4999 27.5705 12.4999C27.3912 12.4999 27.2178 12.5344 27.0551 12.6021C26.5765 12.8007 26.2431 13.2643 26.2074 13.7845C26.165 14.3943 26.0351 14.8813 25.8123 15.2746C25.5553 15.7134 25.2244 15.9894 24.7062 16.1963C24.1703 16.406 23.5783 16.428 23.3486 16.428H23.3281C23.1489 16.428 23.0041 16.4184 22.9138 16.4101C22.8756 16.406 22.8455 16.4017 22.8251 16.4005L22.8046 16.3978C22.7978 16.3964 22.7964 16.3964 22.795 16.3964C22.3522 16.3233 21.8927 16.482 21.5851 16.8103C21.272 17.1455 21.1448 17.6133 21.246 18.063C21.3733 18.6315 21.4374 19.1323 21.4374 19.5531C21.4374 19.9877 21.3677 20.2541 21.3103 20.4017C21.2036 20.6473 21.131 20.7066 20.9644 20.8031C20.7866 20.8998 20.4886 20.9563 20.1673 20.9563H20.136C19.5961 20.9563 18.9616 20.8038 18.5401 20.6623C17.7284 20.3098 16.8877 20.2757 16.4376 20.2888H16.4378C14.5874 20.345 11.2435 22.3316 10.5921 24.8562C10.5033 25.1999 10.4398 25.6502 10.4969 26.1569C8.20728 26.6109 6.03127 28.5152 5.10459 30.3808C3.56814 33.4746 3.8048 35.4822 4.43617 36.7213C3.85949 36.9857 3.29635 37.3409 2.75644 37.7876C2.0708 38.3547 -0.153479 40.3971 0.00839608 42.8643C0.0397047 43.3398 0.169314 43.9209 0.518494 44.5221L0.160154 49.9048L0.157283 49.9972C0.157283 51.2017 0.389705 52.3703 0.849216 53.4713C1.29219 54.5336 1.92793 55.4884 2.73594 56.3093C3.54531 57.1288 4.4873 57.7731 5.5373 58.2229C6.62244 58.6884 7.77771 58.9258 8.96853 58.9258C10.1594 58.9258 11.3146 58.6884 12.4002 58.2221C13.4502 57.7723 14.392 57.1279 15.2 56.3071C16.0094 55.4876 16.6439 54.5327 17.0868 53.4691C17.5461 52.3694 17.7787 51.2009 17.7787 49.9964C17.7773 46.114 18.9804 42.0742 21.1664 38.6236C23.3403 35.1854 26.3633 32.531 29.6758 31.1485C30.0121 31.0078 30.2761 30.7429 30.4155 30.402C30.5551 30.0613 30.5551 29.6874 30.4155 29.3465C30.2022 28.8292 29.7073 28.4938 29.1522 28.4938C28.9731 28.4938 28.7967 28.5298 28.6301 28.6001H28.6287C26.6765 29.4168 24.8321 30.5882 23.1476 32.0782C21.5193 33.5173 20.0783 35.2197 18.8616 37.1376C17.6503 39.0526 16.707 41.1165 16.0562 43.2703C15.3864 45.4915 15.0458 47.7542 15.0446 49.9963C15.0432 51.645 14.4116 53.1944 13.2631 54.3616C12.1133 55.5246 10.5889 56.1647 8.96881 56.1663C7.34869 56.1649 5.82291 55.5246 4.67447 54.3616C3.5356 53.2055 2.9026 51.6685 2.89166 50.0377L3.075 46.7016C4.01412 47.1624 4.93847 47.3916 5.82592 47.3916C7.57004 47.3916 9.17142 46.5094 10.4593 44.7759C10.9382 44.1313 12.4654 41.8544 12.0062 39.6231C11.9046 39.1295 11.7125 38.6761 11.4378 38.2709C13.3286 37.4724 14.3971 36.2456 14.9896 35.2353C15.9263 33.6379 16.1372 31.8076 15.9383 30.3874C16.101 30.3689 16.2669 30.338 16.4365 30.2887C17.641 29.9384 18.6687 28.8384 19.671 26.8264C20.2426 25.6788 20.5295 24.6523 20.5312 23.7547C20.5312 23.7377 20.5312 23.7195 20.5312 23.7024C21.4623 23.6403 22.2498 23.3423 22.8719 22.8154C23.2998 22.4525 23.6387 21.9682 23.8521 21.4177C24.0641 20.8755 24.1721 20.2478 24.1721 19.5523C24.1721 19.4171 24.168 19.2791 24.1598 19.1398C25.0607 19.0377 25.877 18.7631 26.5865 18.3203C27.2414 17.9092 27.7924 17.3324 28.1792 16.6549C28.2872 16.4674 28.3842 16.2687 28.4705 16.0604C29.3264 16.4549 30.1903 16.6563 31.0395 16.6592H31.0598C31.7284 16.6592 32.7442 16.5185 33.7819 15.8479C34.2234 15.565 34.6446 15.2035 35.0315 14.7759L35.0686 14.8144C35.562 15.3263 36.0707 15.7222 36.6215 16.0259C37.3489 16.4273 38.1131 16.6316 38.8924 16.6316H38.9157C39.5993 16.6316 40.2938 16.4646 40.9815 16.1376C41.0251 16.2535 41.0717 16.3695 41.1223 16.4839C41.4736 17.2744 41.9138 17.8939 42.4676 18.3754C43.1661 18.9922 44.1151 19.3453 45.0708 19.3453C45.1801 19.3453 45.2907 19.3426 45.403 19.3357C45.4001 19.3826 45.4001 19.4309 45.4001 19.4764C45.3988 20.0103 45.5013 20.5126 45.7024 20.9665C46.0427 21.7544 46.7456 22.429 47.6314 22.8181C48.1728 23.0609 48.7825 23.2251 49.4921 23.3203L49.4937 23.3201C49.3856 24.3163 49.6627 25.4886 50.3291 26.8265C51.3314 28.8384 52.3592 29.9385 53.5636 30.2888C53.7334 30.3382 53.8991 30.3691 54.0618 30.3875C53.863 31.8079 54.074 33.638 55.0105 35.2354C55.603 36.2458 56.6713 37.4726 58.5623 38.271C58.2875 38.6762 58.0955 39.1296 57.994 39.6233C57.5349 41.8547 59.0619 44.1314 59.5408 44.7761C60.8288 46.5095 62.4298 47.3918 64.1742 47.3918C65.1165 47.3918 66.1006 47.1334 67.0997 46.6136C67.1821 47.7702 67.2655 49.1918 67.2655 49.9963C67.2642 51.6436 66.6325 53.1944 65.4827 54.3616C64.3343 55.5246 62.8099 56.1647 61.1898 56.1663C59.5696 56.1649 58.0439 55.5246 56.8954 54.3616C55.7458 53.1944 55.1126 51.6436 55.1126 49.9963C55.1112 47.7571 54.7763 45.4985 54.1146 43.2813C53.472 41.129 52.5396 39.0678 51.342 37.1555C50.1388 35.2364 48.7116 33.5338 47.0968 32.0949C45.4249 30.6034 43.5927 29.4321 41.6499 28.6126C41.4819 28.5409 41.304 28.505 41.1236 28.505C40.5698 28.505 40.0749 28.8375 39.8616 29.3535C39.721 29.6929 39.7194 30.0683 39.8589 30.409C39.997 30.7497 40.2595 31.016 40.5958 31.1581C43.8853 32.5419 46.8808 35.1951 49.0314 38.6304C51.1915 42.0741 52.3796 46.111 52.3781 49.9963C52.3781 51.2008 52.6105 52.3693 53.07 53.4703C53.513 54.5326 54.1488 55.4874 54.9568 56.3083C55.7661 57.1278 56.7081 57.7721 57.7581 58.222C58.8435 58.6883 59.9989 58.9256 61.1898 58.9256C62.3806 58.9256 63.5345 58.6883 64.6214 58.222C65.67 57.7721 66.612 57.1278 67.4213 56.3083C68.2293 55.4874 68.8652 54.5326 69.308 53.4703C69.7674 52.3693 69.9999 51.2006 69.9999 49.9963C69.9999 48.1045 69.87 46.181 69.6157 44.2702C69.8648 43.7596 69.9645 43.2724 69.9914 42.8635ZM8.27127 43.1208C7.01236 44.815 5.56779 45.068 3.7251 43.9167C2.779 43.3258 2.74715 42.8404 2.73676 42.681C2.6807 41.8273 3.60615 40.6517 4.48976 39.9206C5.30761 39.244 6.13381 38.9052 6.96041 38.9052C7.53709 38.9052 8.1139 39.0701 8.6884 39.4004C9.16978 39.6772 9.28353 39.9648 9.32865 40.1845C9.49627 40.9987 8.89799 42.2774 8.27127 43.1208ZM12.6359 33.8301C11.9137 35.0617 10.6257 35.8529 8.80761 36.1814C8.22697 36.2863 7.39996 36.2094 6.9831 35.6467C6.43691 34.9091 6.64322 33.44 7.54898 31.6164C8.28521 30.1339 10.1662 28.8132 11.5 28.8132C11.5454 28.8132 11.5904 28.8147 11.6344 28.8179C12.0746 28.8489 12.7075 29.0326 13.1188 30.2647C13.3534 30.9671 13.4182 32.4961 12.6359 33.8301ZM17.2276 25.5871C16.3405 27.3677 15.782 27.6072 15.6791 27.6371C15.445 27.7048 14.9332 27.3911 14.4798 27.1145L14.301 27.0058C13.0564 26.2537 13.1931 25.7246 13.238 25.5508C13.5429 24.3692 15.7067 23.071 16.5198 23.0463H16.5199C17.0654 23.0281 17.5844 23.1801 17.7213 23.3965C17.8755 23.6405 17.8386 24.3605 17.2276 25.5871ZM52.772 25.5872C52.161 24.3607 52.1242 23.6405 52.2784 23.3964C52.4082 23.1911 52.8803 23.0449 53.3968 23.0449C53.4244 23.0449 53.452 23.0453 53.4798 23.0461H53.4799C54.293 23.0709 56.4567 24.369 56.7617 25.5507C56.8066 25.7246 56.9431 26.2536 55.6987 27.0056L55.5199 27.1143C55.0667 27.3911 54.5541 27.7054 54.3206 27.637C54.2175 27.6073 53.659 27.3678 52.772 25.5872ZM57.3637 33.8301C56.5814 32.496 56.6462 30.9669 56.8807 30.2649C57.292 29.0328 57.9249 28.849 58.365 28.818C59.7038 28.7243 61.6892 30.0835 62.4506 31.6165C63.3563 33.4402 63.5627 34.9092 63.0165 35.6468C62.5996 36.2097 61.7727 36.2865 61.192 36.1815C59.3739 35.8529 58.0858 35.0618 57.3637 33.8301ZM66.2745 43.9167C64.4318 45.068 62.9869 44.815 61.7283 43.1208C61.1016 42.2773 60.5033 40.9985 60.6711 40.1844C60.7162 39.9647 60.8298 39.677 61.3113 39.4003C62.7087 38.5968 64.1214 38.7718 65.5099 39.9206C66.3936 40.6517 67.319 41.8273 67.2629 42.681C67.2524 42.8405 67.2206 43.3258 66.2745 43.9167Z" fill="#468FBC"/>
</g>
<defs>
<clipPath id="clip0">
<rect width="70" height="70" fill="white"/>
</clipPath>
</defs>
</svg>
