<svg width="70" height="70" viewBox="0 0 70 70" fill="none" xmlns="http://www.w3.org/2000/svg">
<g clip-path="url(#clip0)">
<path d="M6.77419 26.3101V29.3548C6.77419 31.222 8.29409 32.7419 10.1613 32.7419H14.6774C15.5479 32.7419 16.3346 32.4023 16.9355 31.8615C17.5364 32.4034 18.3231 32.7419 19.1935 32.7419H23.7097C24.1717 32.7419 24.6116 32.6482 25.0124 32.48C25.3536 33.2954 26.1585 33.8709 27.0968 33.8709H33.871C34.2844 33.8709 34.667 33.7513 35 33.5573C35.333 33.7513 35.7156 33.8709 36.129 33.8709H42.9032C43.8415 33.8709 44.6464 33.2954 44.9876 32.48C45.3884 32.6482 45.8283 32.7419 46.2903 32.7419H50.8064C51.6769 32.7419 52.4636 32.4023 53.0645 31.8615C53.6654 32.4034 54.4521 32.7419 55.3226 32.7419H59.8387C61.7059 32.7419 63.2258 31.222 63.2258 29.3548V26.3101L69.0832 17.5248C69.683 16.6251 70 15.576 70 14.4944C70 11.4821 67.5501 9.03223 64.5379 9.03223H60.0658C57.4792 9.03223 54.9422 9.922 52.9234 11.5378C51.3032 12.8339 49.2689 13.5484 47.1922 13.5484H22.8078C20.7311 13.5484 18.6957 12.8339 17.0766 11.5378C15.0578 9.922 12.5208 9.03223 9.93416 9.03223H5.46213C2.44991 9.03223 0 11.4821 0 14.4944C0 15.576 0.316989 16.6251 0.916788 17.5248L6.77419 26.3101ZM14.6774 30.4838H10.1613C9.53834 30.4838 9.03226 29.9778 9.03226 29.3548V24.8387C9.03226 22.9715 10.5522 21.4516 12.4194 21.4516H13.5484C14.7937 21.4516 15.8065 22.4643 15.8065 23.7096V29.3548C15.8065 29.9778 15.3004 30.4838 14.6774 30.4838ZM23.7097 30.4838H19.1935C18.5706 30.4838 18.0645 29.9778 18.0645 29.3548V25.9677C18.0645 23.477 20.0899 21.4516 22.5806 21.4516C23.826 21.4516 24.8387 22.4643 24.8387 23.7096V29.3548C24.8387 29.9778 24.3326 30.4838 23.7097 30.4838ZM27.0968 31.6129V23.7096C27.0968 21.8424 28.6167 20.3225 30.4839 20.3225C32.3511 20.3225 33.871 21.8424 33.871 23.7096V31.6129H27.0968ZM42.9032 31.6129H36.129V23.7096C36.129 21.8424 37.6489 20.3225 39.5161 20.3225C41.3833 20.3225 42.9032 21.8424 42.9032 23.7096V31.6129ZM50.8064 30.4838H46.2903C45.6674 30.4838 45.1613 29.9778 45.1613 29.3548V23.7096C45.1613 22.4643 46.174 21.4516 47.4194 21.4516C49.9101 21.4516 51.9355 23.477 51.9355 25.9677V29.3548C51.9355 29.9778 51.4294 30.4838 50.8064 30.4838ZM60.9677 29.3548C60.9677 29.9778 60.4617 30.4838 59.8387 30.4838H55.3226C54.6996 30.4838 54.1936 29.9778 54.1936 29.3548V23.7096C54.1936 22.4643 55.2063 21.4516 56.4516 21.4516H57.5806C59.4478 21.4516 60.9677 22.9715 60.9677 24.8387V29.3548ZM5.46213 11.2903H9.93416C12.0109 11.2903 14.0462 12.0048 15.6653 13.3008C17.6841 14.9166 20.2211 15.8064 22.8078 15.8064H47.1922C49.7789 15.8064 52.3159 14.9166 54.3347 13.3008C55.9549 12.0048 57.9891 11.2903 60.0658 11.2903H64.5379C66.3047 11.2903 67.7419 12.7275 67.7419 14.4944C67.7419 15.1289 67.5556 15.743 67.2033 16.2717L62.836 22.8221C62.0224 20.7051 59.9809 19.1935 57.5806 19.1935H56.4516C54.757 19.1935 53.295 20.1428 52.5226 21.5271C51.2795 20.1004 49.4552 19.1935 47.4194 19.1935C46.1558 19.1935 45.0158 19.7172 44.196 20.5552C43.18 19.0535 41.4616 18.0645 39.5161 18.0645C37.6633 18.0645 36.0298 18.9747 35 20.3573C33.9702 18.9747 32.3367 18.0645 30.4839 18.0645C28.5384 18.0645 26.82 19.0535 25.804 20.5552C24.9842 19.7172 23.8442 19.1935 22.5806 19.1935C20.5447 19.1935 18.7205 20.1004 17.4774 21.5271C16.705 20.1428 15.243 19.1935 13.5484 19.1935H12.4194C10.0191 19.1935 7.97765 20.7051 7.16285 22.8221L2.79557 16.2717C2.4444 15.743 2.25806 15.1289 2.25806 14.4944C2.25806 12.7275 3.69527 11.2903 5.46213 11.2903Z" fill="#468FBC"/>
<path d="M63.2258 43.6899V40.6452C63.2258 38.778 61.7059 37.2581 59.8387 37.2581H55.3226C54.4521 37.2581 53.6654 37.5977 53.0645 38.1385C52.4636 37.5965 51.6769 37.2581 50.8064 37.2581H46.2903C45.8283 37.2581 45.3884 37.3518 44.9876 37.5199C44.6464 36.7046 43.8415 36.129 42.9032 36.129H36.129C35.7156 36.129 35.333 36.2487 35 36.4427C34.667 36.2487 34.2844 36.129 33.871 36.129H27.0968C26.1585 36.129 25.3536 36.7046 25.0124 37.5199C24.6116 37.3518 24.1717 37.2581 23.7097 37.2581H19.1935C18.3231 37.2581 17.5364 37.5977 16.9355 38.1385C16.3346 37.5965 15.5479 37.2581 14.6774 37.2581H10.1613C8.29409 37.2581 6.77419 38.778 6.77419 40.6452V43.6899L0.916788 52.4763C0.316989 53.3771 0 54.4251 0 55.5056C0 58.5178 2.44991 60.9677 5.46213 60.9677H9.93416C12.5208 60.9677 15.0578 60.078 17.0766 58.4621C18.6968 57.1661 20.7311 56.4516 22.8078 56.4516H47.1922C49.2689 56.4516 51.3043 57.1661 52.9234 58.4621C54.9422 60.078 57.4792 60.9677 60.0658 60.9677H64.5379C67.5501 60.9677 70 58.5178 70 55.5056C70 54.4251 69.683 53.3771 69.0832 52.4752L63.2258 43.6899ZM55.3226 39.5161H59.8387C60.4617 39.5161 60.9677 40.0222 60.9677 40.6452V45.1613C60.9677 47.0285 59.4478 48.5484 57.5806 48.5484H56.4516C55.2063 48.5484 54.1936 47.5357 54.1936 46.2903V40.6452C54.1936 40.0222 54.6996 39.5161 55.3226 39.5161ZM46.2903 39.5161H50.8064C51.4294 39.5161 51.9355 40.0222 51.9355 40.6452V44.0323C51.9355 46.523 49.9101 48.5484 47.4194 48.5484C46.174 48.5484 45.1613 47.5357 45.1613 46.2903V40.6452C45.1613 40.0222 45.6674 39.5161 46.2903 39.5161ZM42.9032 38.3871V46.2903C42.9032 48.1575 41.3833 49.6774 39.5161 49.6774C37.6489 49.6774 36.129 48.1575 36.129 46.2903V38.3871H42.9032ZM27.0968 38.3871H33.871V46.2903C33.871 48.1575 32.3511 49.6774 30.4839 49.6774C28.6167 49.6774 27.0968 48.1575 27.0968 46.2903V38.3871ZM19.1935 39.5161H23.7097C24.3326 39.5161 24.8387 40.0222 24.8387 40.6452V46.2903C24.8387 47.5357 23.826 48.5484 22.5806 48.5484C20.0899 48.5484 18.0645 46.523 18.0645 44.0323V40.6452C18.0645 40.0222 18.5706 39.5161 19.1935 39.5161ZM9.03226 40.6452C9.03226 40.0222 9.53834 39.5161 10.1613 39.5161H14.6774C15.3004 39.5161 15.8065 40.0222 15.8065 40.6452V46.2903C15.8065 47.5357 14.7937 48.5484 13.5484 48.5484H12.4194C10.5522 48.5484 9.03226 47.0285 9.03226 45.1613V40.6452ZM64.5379 58.7097H60.0658C57.9891 58.7097 55.9538 57.9952 54.3347 56.6991C52.3159 55.0833 49.7789 54.1935 47.1922 54.1935H22.8078C20.2211 54.1935 17.6841 55.0833 15.6653 56.6991C14.0451 57.9952 12.0109 58.7097 9.93416 58.7097H5.46213C3.69527 58.7097 2.25806 57.2725 2.25806 55.5056C2.25806 54.8711 2.4444 54.2569 2.79667 53.7283L7.16395 47.1779C7.97765 49.2948 10.0191 50.8064 12.4194 50.8064H13.5484C15.243 50.8064 16.705 49.8571 17.4774 48.4729C18.7205 49.8996 20.5447 50.8064 22.5806 50.8064C23.8442 50.8064 24.9842 50.2827 25.804 49.4448C26.82 50.9465 28.5384 51.9355 30.4839 51.9355C32.3367 51.9355 33.9702 51.0253 35 49.6427C36.0298 51.0253 37.6633 51.9355 39.5161 51.9355C41.4616 51.9355 43.18 50.9465 44.196 49.4448C45.0158 50.2827 46.1558 50.8064 47.4194 50.8064C49.4552 50.8064 51.2795 49.8996 52.5226 48.4729C53.295 49.8571 54.757 50.8064 56.4516 50.8064H57.5806C59.9809 50.8064 62.0224 49.2948 62.8372 47.1779L67.2044 53.7272C67.5556 54.2569 67.7419 54.8722 67.7419 55.5056C67.7419 57.2725 66.3047 58.7097 64.5379 58.7097Z" fill="#468FBC"/>
</g>
<defs>
<clipPath id="clip0">
<rect width="70" height="70" fill="white"/>
</clipPath>
</defs>
</svg>
