<svg width="70" height="70" viewBox="0 0 70 70" fill="none" xmlns="http://www.w3.org/2000/svg">
<path d="M53.6356 3.90505C51.5934 1.38696 48.8157 0 45.8143 0C41.4409 0 38.3428 1.58776 35.3467 3.12319C34.8987 3.35337 34.4682 3.5734 34.0378 3.78702C33.8572 3.65618 33.6751 3.52266 33.4898 3.38648C31.3311 1.79872 28.8846 0 24.3435 0C21.3421 0 18.5644 1.38696 16.5222 3.90505C14.3891 6.5353 13.2617 10.1215 13.2617 14.2765C13.2617 19.5514 15.4567 23.9596 17.5801 28.2235C18.088 29.2441 18.6141 30.2994 19.1011 31.3499C19.8002 32.8592 21.3319 33.8338 23.003 33.8338H23.1253V35.0002C23.1253 36.7744 24.5689 38.2174 26.3425 38.2174H27.5089V42.7222L27.2936 42.7526C26.7329 42.8327 26.343 43.3524 26.4231 43.9126C26.4963 44.4242 26.9353 44.7933 27.4373 44.7933C27.4608 44.7933 27.4854 44.7901 27.5089 44.7885V47.1058L27.2936 47.1367C26.7329 47.2163 26.343 47.736 26.4231 48.2967C26.4963 48.8078 26.9353 49.1768 27.4373 49.1768C27.4608 49.1768 27.4854 49.1736 27.5089 49.172V51.4893L27.2936 51.5203C26.7329 51.6004 26.343 52.1201 26.4231 52.6803C26.4963 53.1919 26.9353 53.561 27.4373 53.561C27.4608 53.561 27.4854 53.5572 27.5089 53.5556V55.8734L27.2936 55.9039C26.7329 55.984 26.343 56.5036 26.4231 57.0644C26.4963 57.5755 26.9353 57.9445 27.4373 57.9445C27.4608 57.9445 27.4854 57.9413 27.5089 57.9397V60.257L27.2936 60.288C26.7329 60.3681 26.343 60.8877 26.4231 61.448C26.4963 61.9596 26.9353 62.3286 27.4373 62.3286C27.4608 62.3286 27.4854 62.3249 27.5089 62.3233V62.8878C27.5089 63.4705 27.6675 64.043 27.9676 64.5428L30.624 68.9702C31.0054 69.6052 31.7023 69.9999 32.443 69.9999H37.7778C38.5185 69.9999 39.2155 69.6052 39.5968 68.9702L42.2532 64.5428C42.5528 64.043 42.7114 63.4705 42.7114 62.8878V60.1571L42.9272 60.1262C43.488 60.0461 43.8773 59.5264 43.7972 58.9662C43.7208 58.4305 43.2428 58.0519 42.7114 58.0893V55.773L42.9272 55.7426C43.488 55.6625 43.8773 55.1428 43.7972 54.5821C43.7208 54.0464 43.2428 53.6678 42.7114 53.7052V51.3895L42.9272 51.3585C43.488 51.2784 43.8773 50.7593 43.7972 50.1985C43.7208 49.6628 43.2428 49.2842 42.7114 49.3216V47.0054L42.9272 46.9749C43.488 46.8948 43.8773 46.3752 43.7972 45.8149C43.7208 45.2793 43.2428 44.9006 42.7114 44.938V42.6218L42.9272 42.5908C43.488 42.5107 43.8773 41.9916 43.7972 41.4308C43.7208 40.8952 43.2428 40.5165 42.7114 40.5539V38.2174H43.8778C45.652 38.2174 47.0955 36.7744 47.0955 35.0002V33.8338H47.2157C48.8894 33.8338 50.4222 32.856 51.1208 31.3435C51.5934 30.3192 52.1018 29.2906 52.5926 28.2956C54.7086 24.0103 56.8966 19.5792 56.8966 14.2765C56.8966 10.1215 55.7692 6.5353 53.6356 3.90505ZM40.6606 62.8883C40.6606 63.0993 40.603 63.307 40.494 63.4881L37.8381 67.9154C37.8253 67.9368 37.8023 67.9496 37.7778 67.9496H32.4425C32.4179 67.9496 32.395 67.9363 32.3822 67.9154L29.7257 63.4881C29.6173 63.307 29.5597 63.0993 29.5597 62.8878V62.036L40.6606 60.4503V62.8883ZM40.6606 53.9946L34.9649 54.8085C34.4041 54.8886 34.0143 55.4083 34.0944 55.9685C34.1675 56.4801 34.6065 56.8492 35.1085 56.8492C35.1566 56.8492 35.2057 56.846 35.2549 56.8385L40.6606 56.0668V58.3787L29.5597 59.9649V57.6524L30.8713 57.4649C31.4321 57.3848 31.8219 56.8652 31.7418 56.305C31.6617 55.7442 31.1415 55.3543 30.5813 55.435L29.5597 55.5808V53.2683L40.6606 51.6827V53.9946ZM40.6606 49.611L29.5597 51.1967V48.8847L40.6606 47.2986V49.611ZM40.6606 45.2269L29.5597 46.8131V44.5006L40.6606 42.915V45.2269ZM40.6606 40.8434L29.5597 42.429V38.2174H40.6606V40.8434ZM50.7539 27.3877C50.2566 28.3944 49.7429 29.4353 49.2585 30.4837C48.8943 31.273 48.0921 31.783 47.2152 31.783H43.8773C43.3106 31.783 42.8519 32.2418 42.8519 32.8084C42.8519 33.3745 43.3106 33.8338 43.8773 33.8338H45.0442V35.0002C45.0442 35.6432 44.5208 36.1666 43.8778 36.1666H26.3425C25.6989 36.1666 25.1761 35.6432 25.1761 35.0002V33.8338H39.4942C40.0604 33.8338 40.5196 33.3745 40.5196 32.8084C40.5196 32.2418 40.0604 31.783 39.4942 31.783H23.003C22.1277 31.783 21.326 31.2746 20.9618 30.4874C20.4625 29.4107 19.9305 28.3426 19.4157 27.3092C17.3056 23.0714 15.312 19.0686 15.312 14.2765C15.312 6.25011 19.8552 2.05079 24.3435 2.05079C28.2117 2.05079 30.2774 3.56966 32.2748 5.03833C33.666 6.06159 35.1043 7.11903 37.0253 7.52972C37.5791 7.64828 38.1238 7.29527 38.2424 6.74145C38.361 6.18763 38.008 5.64289 37.4541 5.52432C36.9639 5.41965 36.5115 5.25729 36.0773 5.05328C36.1452 5.01803 36.2146 4.98279 36.2824 4.94861C39.0617 3.52373 41.936 2.05079 45.8143 2.05079C50.302 2.05079 54.8458 6.25011 54.8458 14.2765C54.8458 19.1007 52.8581 23.1259 50.7539 27.3877Z" fill="#468FBC"/>
</svg>
