<svg width="70" height="70" viewBox="0 0 70 70" fill="none" xmlns="http://www.w3.org/2000/svg">
<g clip-path="url(#clip0)">
<path d="M62.9992 43.8299V42.0019C62.9992 40.0692 61.4323 38.5017 59.4991 38.5017H57.1659C55.2364 38.5017 53.6711 40.0633 53.6658 41.9928C51.3726 41.6916 48.9993 41.4571 46.6661 41.282V39.6686C46.6661 37.7359 45.0992 36.1685 43.1665 36.1685H40.8333C38.9 36.1685 37.3332 37.7359 37.3332 39.6686V40.8553C36.5166 40.8425 35.7396 40.8355 34.9999 40.8355C34.2603 40.8355 33.4833 40.8425 32.6667 40.8553V39.6686C32.6667 37.7359 31.0998 36.1685 29.1666 36.1685H26.8334C24.9007 36.1685 23.3338 37.7359 23.3338 39.6686V41.282C21.0006 41.4571 18.6262 41.6916 16.3336 41.9928C16.3288 40.0633 14.763 38.5017 12.834 38.5017H10.5008C8.56754 38.5017 7.00066 40.0692 7.00066 42.0019V43.8299C2.82179 45.0571 0.000976562 46.7361 0.000976562 49.0015V58.335C0.00364678 59.1644 0.44797 59.9302 1.16732 60.3435V61.8346C1.16732 63.7678 2.73474 65.3347 4.66743 65.3347H6.049C6.54139 66.728 7.8562 67.6615 9.33389 67.6679H12.834C13.4369 67.6642 14.0281 67.5034 14.5499 67.2012C15.1881 68.2158 16.3021 68.8321 17.5005 68.8343H22.1669C22.7698 68.8311 23.3616 68.6703 23.8833 68.368C24.521 69.3822 25.635 69.999 26.8334 70.0011H32.6667C33.5303 69.9979 34.3623 69.6738 34.9999 69.0911C35.6376 69.6738 36.4696 69.9979 37.3332 70.0011H43.1665C44.3649 69.999 45.4784 69.3822 46.1166 68.368C46.6383 68.6703 47.23 68.8311 47.833 68.8343H52.4994C53.6978 68.8321 54.8118 68.2158 55.45 67.2012C55.9712 67.5034 56.5629 67.6642 57.1659 67.6679H60.666C62.1437 67.6615 63.4585 66.728 63.9509 65.3347H65.3324C67.2651 65.3347 68.832 63.7678 68.832 61.8346V60.3435C69.5519 59.9302 69.9962 59.1644 69.9989 58.335V49.0015C69.9989 46.7361 67.1781 45.0571 62.9992 43.8299ZM55.9995 42.0019C55.9995 41.3578 56.5218 40.8355 57.1659 40.8355H59.4991C60.1437 40.8355 60.666 41.3578 60.666 42.0019V43.22C59.2054 42.8814 57.6326 42.585 55.9995 42.3287V42.0019ZM39.6664 39.6686C39.6664 39.0246 40.1887 38.5017 40.8333 38.5017H43.1665C43.8106 38.5017 44.3329 39.0246 44.3329 39.6686V41.1244C42.7265 41.0278 41.1596 40.9589 39.6664 40.9124V39.6686ZM25.667 39.6686C25.667 39.0246 26.1893 38.5017 26.8334 38.5017H29.1666C29.8112 38.5017 30.3335 39.0246 30.3335 39.6686V40.9124C28.8403 40.9589 27.2734 41.0288 25.667 41.1244V39.6686ZM9.33389 42.0019C9.33389 41.3578 9.85618 40.8355 10.5008 40.8355H12.834C13.4781 40.8355 14.0003 41.3578 14.0003 42.0019V42.3287C12.3672 42.585 10.7945 42.8814 9.33389 43.22V42.0019ZM34.9999 43.1687C56.1357 43.1687 67.6657 47.0186 67.6657 49.0015V55.9163C67.0991 55.402 66.3573 55.1233 65.5925 55.1371C64.8417 55.1393 64.1116 55.3849 63.5124 55.8367C62.6718 54.3537 61.0729 53.4651 59.3699 53.534C57.7747 53.5377 56.2548 54.2133 55.1824 55.3951C54.2292 53.8394 52.5026 52.9284 50.6805 53.0197C48.829 53.0191 47.0698 53.8293 45.8661 55.2359C44.8354 53.4512 42.8915 52.3948 40.8333 52.5017C38.4856 52.5033 36.295 53.6819 34.9999 55.6397C33.7049 53.6819 31.5142 52.5033 29.1666 52.5017C27.1063 52.3943 25.1602 53.4528 24.1306 55.2408C22.9269 53.8336 21.1672 53.0239 19.3157 53.0245C17.4957 52.9337 15.7712 53.8421 14.8174 55.3951C13.7451 54.2159 12.2268 53.5425 10.6337 53.5388C8.92909 53.4683 7.32856 54.3574 6.48745 55.8416C5.88825 55.3892 5.15822 55.1436 4.40736 55.1414C3.64314 55.127 2.90136 55.4036 2.33421 55.9163V49.0015C2.33421 47.0186 13.8642 43.1687 34.9999 43.1687ZM3.50109 61.8346V58.7232C3.50109 58.5144 3.54381 57.4704 4.40736 57.4704C5.29921 57.6156 5.92403 58.4295 5.83431 59.3288V63.0014H4.66743C4.02338 63.0014 3.50109 62.4792 3.50109 61.8346ZM12.834 65.3347H9.33389C8.68984 65.3347 8.16754 64.8124 8.16754 64.1678V58.335C8.12429 57.6696 8.36995 57.0175 8.8415 56.546C9.31306 56.0744 9.96459 55.8287 10.63 55.872C12.4906 55.8741 13.9987 57.3817 14.0003 59.2423V64.1678C14.0003 64.8124 13.4781 65.3347 12.834 65.3347ZM22.1669 66.501H17.5005C16.8559 66.501 16.3336 65.9787 16.3336 65.3347V58.335C16.2946 57.5323 16.5963 56.751 17.164 56.1833C17.7322 55.6151 18.5135 55.3139 19.3157 55.3529C21.5341 55.3556 23.3317 57.1537 23.3338 59.3721V65.3347C23.3338 65.9787 22.8115 66.501 22.1669 66.501ZM32.6667 67.6679H26.8334C26.1893 67.6679 25.667 67.1456 25.667 66.501V58.335C25.6211 57.3935 25.9757 56.4765 26.6417 55.81C27.3081 55.1436 28.2251 54.7895 29.1666 54.8349C31.7439 54.8349 33.8331 56.9241 33.8331 59.5013V66.501C33.8331 67.1456 33.3108 67.6679 32.6667 67.6679ZM44.3329 66.501C44.3329 67.1456 43.8106 67.6679 43.1665 67.6679H37.3332C36.6891 67.6679 36.1663 67.1456 36.1663 66.501V59.5013C36.1663 56.9241 38.256 54.8349 40.8333 54.8349C41.7743 54.7895 42.6912 55.1436 43.3577 55.81C44.0242 56.4765 44.3782 57.3935 44.3329 58.335V66.501ZM53.6658 65.3347C53.6658 65.9787 53.1435 66.501 52.4994 66.501H47.833C47.1884 66.501 46.6661 65.9787 46.6661 65.3347V59.3721C46.6682 57.1537 48.4658 55.3556 50.6842 55.3529C51.4863 55.3139 52.2676 55.6151 52.8359 56.1833C53.4036 56.751 53.7053 57.5323 53.6658 58.335V65.3347ZM61.8323 64.1678C61.8323 64.8124 61.31 65.3347 60.666 65.3347H57.1659C56.5218 65.3347 55.9995 64.8124 55.9995 64.1678V59.2423C56.0011 57.3817 57.5093 55.8741 59.3699 55.872C60.0353 55.8287 60.6868 56.0744 61.1584 56.546C61.6299 57.0175 61.8756 57.6696 61.8323 58.335V64.1678ZM66.4988 61.8346C66.4988 62.4792 65.9765 63.0014 65.3324 63.0014H64.1656V59.3288C64.0758 58.4295 64.7007 57.6156 65.5925 57.4704C66.4561 57.4704 66.4988 58.5203 66.4988 58.7232V61.8346Z" fill="#468FBC"/>
<path d="M69.5531 2.5463L69.9221 1.58877C70.1534 0.986901 69.8533 0.311338 69.2514 0.0800979C68.6495 -0.151142 67.974 0.148989 67.7427 0.750854L67.3753 1.70893C64.2271 9.79539 56.4536 15.1342 47.776 15.1694H22.2263C13.5482 15.1353 5.77304 9.79645 2.62487 1.70893L2.25745 0.750854C2.02621 0.148989 1.35064 -0.151142 0.748779 0.0800979C0.146914 0.311338 -0.153217 0.986901 0.0780227 1.58877L0.446512 2.5463C3.94502 11.5316 12.5821 17.4632 22.2242 17.5027H47.7733C57.4165 17.4642 66.0546 11.5321 69.5531 2.5463Z" fill="#468FBC"/>
<path d="M28.0005 33.8352C28.6446 33.8352 29.1669 33.3129 29.1669 32.6689V23.8187L30.6755 25.3274C31.1332 25.7691 31.8611 25.7632 32.3108 25.313C32.761 24.8628 32.7674 24.1354 32.3252 23.6778L28.8251 20.1776C28.8149 20.167 28.8005 20.1638 28.7904 20.1542C28.6905 20.0564 28.5746 19.9779 28.447 19.9208C28.4379 19.9208 28.4261 19.9208 28.4171 19.9138C28.299 19.87 28.1751 19.8455 28.0491 19.8417C28.0101 19.8417 27.9717 19.8444 27.9327 19.8487C27.835 19.8546 27.7383 19.8732 27.6459 19.9048C27.6058 19.916 27.5669 19.9293 27.5289 19.9453C27.3992 20.0009 27.2806 20.0805 27.1791 20.1787L23.679 23.6788C23.2369 24.1365 23.2433 24.8639 23.6935 25.3141C24.1431 25.7643 24.871 25.7707 25.3287 25.3285L26.8336 23.8187V32.6689C26.8336 33.3129 27.3559 33.8352 28.0005 33.8352Z" fill="#468FBC"/>
<path d="M42 33.8352C42.6446 33.8352 43.1669 33.3129 43.1669 32.6689V23.8187L44.675 25.3274C45.1327 25.7691 45.8606 25.7632 46.3108 25.313C46.7605 24.8628 46.7669 24.1354 46.3247 23.6778L42.8251 20.1776C42.8144 20.167 42.8006 20.1638 42.7899 20.1542C42.6905 20.0564 42.5741 19.9779 42.447 19.9208C42.4374 19.9208 42.4257 19.9208 42.4166 19.9138C42.2991 19.87 42.1747 19.8455 42.0492 19.8417C42.0102 19.8417 41.9712 19.8444 41.9322 19.8487C41.8345 19.8546 41.7384 19.8732 41.6454 19.9048C41.6059 19.916 41.5669 19.9293 41.529 19.9453C41.3987 20.0009 41.2801 20.0805 41.1787 20.1787L37.6791 23.6788C37.2369 24.1365 37.2433 24.8639 37.693 25.3141C38.1432 25.7643 38.8706 25.7707 39.3288 25.3285L40.8337 23.8187V32.6689C40.8337 33.3129 41.356 33.8352 42 33.8352Z" fill="#468FBC"/>
<path d="M58.3326 36.1685C58.9767 36.1685 59.499 35.6462 59.499 35.0021V26.152L61.0076 27.6607C61.4653 28.1023 62.1927 28.0964 62.6429 27.6462C63.0931 27.196 63.0995 26.4687 62.6573 26.011L59.1572 22.5109C59.1465 22.5002 59.1326 22.497 59.1225 22.4874C59.0226 22.3902 58.9067 22.3112 58.7791 22.254C58.7689 22.254 58.7583 22.254 58.7476 22.2471C58.6301 22.2038 58.5067 22.1793 58.3812 22.175C58.3422 22.175 58.3033 22.1777 58.2648 22.1819C58.1665 22.1878 58.0699 22.2065 57.9764 22.238C57.938 22.2508 57.9006 22.2615 57.86 22.2775C57.7302 22.3336 57.6117 22.4126 57.5102 22.5109L54.0101 26.011C53.5679 26.4687 53.5743 27.196 54.0245 27.6462C54.4742 28.0964 55.2021 28.1023 55.6598 27.6607L57.1657 26.152V35.0021C57.1657 35.6462 57.688 36.1685 58.3326 36.1685Z" fill="#468FBC"/>
<path d="M10.5006 36.1685C11.1447 36.1685 11.6669 35.6462 11.6669 35.0022V26.152L13.1756 27.6607C13.6333 28.1023 14.3612 28.0965 14.8109 27.6463C15.261 27.1961 15.2675 26.4687 14.8253 26.011L11.3252 22.5109C11.315 22.5002 11.3006 22.497 11.2904 22.4874C11.1906 22.3902 11.0747 22.3112 10.9471 22.254C10.938 22.254 10.9262 22.254 10.9156 22.2471C10.7986 22.2033 10.6747 22.1793 10.5492 22.1761C10.5107 22.1755 10.4718 22.1771 10.4328 22.1819C10.3345 22.1878 10.2379 22.2065 10.1444 22.238C9.96923 22.2887 9.80902 22.3817 9.67818 22.5088L6.17807 26.0083C5.73588 26.466 5.74229 27.1939 6.19249 27.6441C6.64215 28.0938 7.37005 28.1002 7.82772 27.658L9.33372 26.152V35.0022C9.33372 35.6462 9.85601 36.1685 10.5006 36.1685Z" fill="#468FBC"/>
</g>
<defs>
<clipPath id="clip0">
<rect width="70" height="70" fill="white"/>
</clipPath>
</defs>
</svg>
