<svg width="42" height="42" viewBox="0 0 42 42" fill="none" xmlns="http://www.w3.org/2000/svg">
<path d="M21 39.375C17.3658 39.375 13.8132 38.2973 10.7914 36.2783C7.76965 34.2592 5.41448 31.3894 4.02372 28.0318C2.63296 24.6742 2.26908 20.9796 2.97808 17.4152C3.68708 13.8508 5.43713 10.5767 8.00692 8.00692C10.5767 5.43713 13.8508 3.68708 17.4152 2.97808C20.9796 2.26908 24.6742 2.63296 28.0318 4.02372C31.3894 5.41448 34.2592 7.76965 36.2783 10.7914C38.2973 13.8132 39.375 17.3658 39.375 21C39.375 25.8734 37.4391 30.5471 33.9931 33.9931C30.5471 37.4391 25.8734 39.375 21 39.375ZM21 5.25001C17.885 5.25001 14.8399 6.17373 12.2498 7.90436C9.6597 9.63499 7.64099 12.0948 6.44891 14.9727C5.25683 17.8507 4.94492 21.0175 5.55264 24.0727C6.16036 27.1279 7.6604 29.9343 9.86308 32.1369C12.0658 34.3396 14.8721 35.8397 17.9273 36.4474C20.9825 37.0551 24.1493 36.7432 27.0273 35.5511C29.9052 34.359 32.365 32.3403 34.0957 29.7502C35.8263 27.1602 36.75 24.1151 36.75 21C36.75 16.8228 35.0906 12.8168 32.1369 9.86308C29.1832 6.90938 25.1772 5.25001 21 5.25001Z" fill="black"/>
<path d="M27.0244 28.875L19.6875 21.5381V9.1875H22.3125V20.4487L28.875 27.0244L27.0244 28.875Z" fill="black"/>
</svg>
