<svg width="70" height="70" viewBox="0 0 70 70" fill="none" xmlns="http://www.w3.org/2000/svg">
<path d="M66.7188 7.65625H3.28125C2.99117 7.65625 2.71297 7.77148 2.50785 7.9766C2.30273 8.18172 2.1875 8.45992 2.1875 8.75V18.5938C2.1876 18.7826 2.23654 18.9682 2.32956 19.1325C2.42259 19.2969 2.55653 19.4344 2.71838 19.5316L7.65625 22.4937V26.25C7.65625 26.5401 7.77148 26.8183 7.9766 27.0234C8.18172 27.2285 8.45992 27.3438 8.75 27.3438H22.3371C22.0335 28.0331 21.8761 28.778 21.875 29.5312V36.0938C21.875 36.3838 21.9902 36.662 22.1954 36.8671C22.4005 37.0723 22.6787 37.1875 22.9688 37.1875H25.9978L25.245 38.9441C25.1539 39.1566 25.1325 39.3926 25.1838 39.618C25.2352 39.8435 25.3567 40.0469 25.531 40.199C25.7052 40.3511 25.9231 40.444 26.1535 40.4645C26.3838 40.485 26.6147 40.4319 26.813 40.3129L31.9966 37.2031L53.5393 38.2797C53.5488 38.2797 53.557 38.2754 53.5667 38.2758C53.5764 38.2762 53.5843 38.2812 53.594 38.2812H66.719C67.0091 38.2812 67.2873 38.166 67.4924 37.9609C67.6975 37.7558 67.8128 37.4776 67.8128 37.1875V30.625C67.8128 30.3349 67.6975 30.0567 67.4924 29.8516C67.2873 29.6465 67.0091 29.5312 66.719 29.5312H53.5938C53.585 29.5312 53.5778 29.536 53.5691 29.5362C53.5605 29.5363 53.5529 29.5319 53.5445 29.5323L32.8125 30.4746V29.5312C32.8102 28.7775 32.6508 28.0324 32.3444 27.3438H61.25C61.5401 27.3438 61.8183 27.2285 62.0234 27.0234C62.2285 26.8183 62.3438 26.5401 62.3438 26.25V22.4943L67.2816 19.5316C67.4435 19.4344 67.5774 19.2969 67.6704 19.1325C67.7635 18.9682 67.8124 18.7826 67.8125 18.5938V8.75C67.8125 8.45992 67.6973 8.18172 67.4921 7.9766C67.287 7.77148 67.0088 7.65625 66.7188 7.65625ZM16.4062 25.1562H9.84375V20.7812C9.84375 19.911 10.1895 19.0764 10.8048 18.4611C11.4202 17.8457 12.2548 17.5 13.125 17.5C13.9952 17.5 14.8298 17.8457 15.4452 18.4611C16.0605 19.0764 16.4062 19.911 16.4062 20.7812V25.1562ZM18.5938 20.7812C18.5938 19.911 18.9395 19.0764 19.5548 18.4611C20.1702 17.8457 21.0048 17.5 21.875 17.5C22.7452 17.5 23.5798 17.8457 24.1952 18.4611C24.8105 19.0764 25.1562 19.911 25.1562 20.7812V24.5319C24.7763 24.6985 24.4167 24.908 24.0844 25.1562H18.5938V20.7812ZM27.3438 20.7812C27.3438 19.911 27.6895 19.0764 28.3048 18.4611C28.9202 17.8457 29.7548 17.5 30.625 17.5C31.4952 17.5 32.3298 17.8457 32.9452 18.4611C33.5605 19.0764 33.9062 19.911 33.9062 20.7812V25.1562H30.581C29.6468 24.4546 28.5121 24.0712 27.3438 24.0625V20.7812ZM65.625 36.0938H54.6875V31.7188H56.875V33.9062H59.0625V31.7188H61.25V33.9062H63.4375V31.7188H65.625V36.0938ZM52.5 36.0377L31.7734 35.0016C31.5569 34.9913 31.3422 35.045 31.156 35.156L28.5879 36.6961L28.6554 36.5385C28.6616 36.5248 28.6673 36.5112 28.6729 36.4975L30.2658 32.7798L52.5 31.7688V36.0377ZM29.482 30.625C29.2766 30.6343 29.0779 30.7013 28.9089 30.8183C28.7398 30.9354 28.6071 31.0977 28.5261 31.2867L26.9351 35H24.0625V29.5312C24.0651 28.8009 24.3105 28.0921 24.7601 27.5164C25.2097 26.9408 25.8379 26.531 26.5459 26.3514C27.441 26.1 28.6779 26.3461 29.511 27.0736C29.5399 27.0981 29.6296 27.183 29.6606 27.2039C30.277 27.8217 30.6238 28.6585 30.625 29.5312V30.5741L29.482 30.625ZM36.0938 20.7812C36.0938 19.911 36.4395 19.0764 37.0548 18.4611C37.6702 17.8457 38.5048 17.5 39.375 17.5C40.2452 17.5 41.0798 17.8457 41.6952 18.4611C42.3105 19.0764 42.6562 19.911 42.6562 20.7812V25.1562H36.0938V20.7812ZM44.8438 20.7812C44.8438 19.911 45.1895 19.0764 45.8048 18.4611C46.4202 17.8457 47.2548 17.5 48.125 17.5C48.9952 17.5 49.8298 17.8457 50.4452 18.4611C51.0605 19.0764 51.4062 19.911 51.4062 20.7812V25.1562H44.8438V20.7812ZM60.1562 25.1562H53.5938V20.7812C53.5938 19.911 53.9395 19.0764 54.5548 18.4611C55.1702 17.8457 56.0048 17.5 56.875 17.5C57.7452 17.5 58.5798 17.8457 59.1952 18.4611C59.8105 19.0764 60.1562 19.911 60.1562 20.7812V25.1562ZM65.625 17.9743L62.2638 19.991C62.1136 18.9205 61.6476 17.9191 60.9253 17.1149C60.203 16.3107 59.2573 15.7401 58.209 15.4763C57.1608 15.2124 56.0576 15.2672 55.0406 15.6336C54.0237 16 53.1391 16.6614 52.5 17.5332C51.9969 16.8449 51.3385 16.285 50.5783 15.899C49.8181 15.513 48.9776 15.3119 48.125 15.3119C47.2724 15.3119 46.4319 15.513 45.6717 15.899C44.9115 16.285 44.2531 16.8449 43.75 17.5332C43.2469 16.8449 42.5885 16.285 41.8283 15.8991C41.0681 15.5131 40.2276 15.312 39.375 15.312C38.5224 15.312 37.6819 15.5131 36.9217 15.8991C36.1615 16.285 35.5031 16.8449 35 17.5332C34.8448 17.3121 34.6739 17.1022 34.4888 16.9054C33.9338 16.3507 33.2654 15.9225 32.5295 15.6501C31.7936 15.3777 31.0075 15.2676 30.2251 15.3272C29.4426 15.3869 28.6823 15.615 27.9963 15.9958C27.3102 16.3767 26.7145 16.9013 26.25 17.5338C26.0947 17.3126 25.9239 17.1028 25.7388 16.906C25.1839 16.3512 24.5156 15.9229 23.7797 15.6504C23.0438 15.3779 22.2578 15.2677 21.4753 15.3273C20.6929 15.3868 19.9326 15.6148 19.2464 15.9955C18.5603 16.3763 17.9646 16.9008 17.5 17.5332C16.861 16.6614 15.9764 16 14.9595 15.6335C13.9426 15.2671 12.8395 15.2123 11.7912 15.4761C10.743 15.7399 9.79724 16.3103 9.07491 17.1144C8.35257 17.9186 7.88648 18.9199 7.73623 19.9903L4.375 17.9736V9.84375H65.625V17.9743Z" fill="#468FBC"/>
<path d="M67.2816 50.4678L62.3438 47.5051V43.75C62.3438 43.4599 62.2285 43.1817 62.0234 42.9766C61.8183 42.7715 61.5401 42.6562 61.25 42.6562H8.75C8.45992 42.6562 8.18172 42.7715 7.9766 42.9766C7.77148 43.1817 7.65625 43.4599 7.65625 43.75V47.5057L2.71838 50.4684C2.55653 50.5656 2.42259 50.7031 2.32956 50.8675C2.23654 51.0318 2.1876 51.2174 2.1875 51.4062V61.25C2.1875 61.5401 2.30273 61.8183 2.50785 62.0234C2.71297 62.2285 2.99117 62.3438 3.28125 62.3438H66.7188C67.0088 62.3438 67.287 62.2285 67.4921 62.0234C67.6973 61.8183 67.8125 61.5401 67.8125 61.25V51.4062C67.8125 51.2173 67.7636 51.0316 67.6706 50.8672C67.5775 50.7027 67.4436 50.5651 67.2816 50.4678ZM55.7812 44.8438H60.1562V50.3125C60.1562 50.8927 59.9258 51.4491 59.5155 51.8593C59.1053 52.2695 58.5489 52.5 57.9688 52.5C57.3886 52.5 56.8322 52.2695 56.422 51.8593C56.0117 51.4491 55.7812 50.8927 55.7812 50.3125V44.8438ZM53.5938 50.3125C53.5938 50.8927 53.3633 51.4491 52.953 51.8593C52.5428 52.2695 51.9864 52.5 51.4062 52.5C50.8261 52.5 50.2697 52.2695 49.8595 51.8593C49.4492 51.4491 49.2188 50.8927 49.2188 50.3125V44.8438H53.5938V50.3125ZM47.0312 50.3125C47.0312 50.8927 46.8008 51.4491 46.3905 51.8593C45.9803 52.2695 45.4239 52.5 44.8438 52.5C44.2636 52.5 43.7072 52.2695 43.297 51.8593C42.8867 51.4491 42.6562 50.8927 42.6562 50.3125V44.8438H47.0312V50.3125ZM40.4688 50.3125C40.4688 50.8927 40.2383 51.4491 39.828 51.8593C39.4178 52.2695 38.8614 52.5 38.2812 52.5C37.7011 52.5 37.1447 52.2695 36.7345 51.8593C36.3242 51.4491 36.0938 50.8927 36.0938 50.3125V44.8438H40.4688V50.3125ZM33.9062 50.3125C33.9062 50.8927 33.6758 51.4491 33.2655 51.8593C32.8553 52.2695 32.2989 52.5 31.7188 52.5C31.1386 52.5 30.5822 52.2695 30.172 51.8593C29.7617 51.4491 29.5312 50.8927 29.5312 50.3125V44.8438H33.9062V50.3125ZM27.3438 50.3125C27.3438 50.8927 27.1133 51.4491 26.703 51.8593C26.2928 52.2695 25.7364 52.5 25.1562 52.5C24.5761 52.5 24.0197 52.2695 23.6095 51.8593C23.1992 51.4491 22.9688 50.8927 22.9688 50.3125V44.8438H27.3438V50.3125ZM20.7812 50.3125C20.7812 50.8927 20.5508 51.4491 20.1405 51.8593C19.7303 52.2695 19.1739 52.5 18.5938 52.5C18.0136 52.5 17.4572 52.2695 17.047 51.8593C16.6367 51.4491 16.4062 50.8927 16.4062 50.3125V44.8438H20.7812V50.3125ZM9.84375 44.8438H14.2188V50.3125C14.2188 50.8927 13.9883 51.4491 13.578 51.8593C13.1678 52.2695 12.6114 52.5 12.0312 52.5C11.4511 52.5 10.8947 52.2695 10.4845 51.8593C10.0742 51.4491 9.84375 50.8927 9.84375 50.3125V44.8438ZM65.625 60.1562H4.375V52.0252L7.65625 50.0564V50.3125C7.65251 51.2032 7.92183 52.0736 8.42794 52.8064C8.93405 53.5393 9.65263 54.0995 10.4869 54.4115C11.3211 54.7234 12.2309 54.7722 13.0937 54.5513C13.9565 54.3303 14.7309 53.8502 15.3125 53.1757C15.7177 53.6497 16.2209 54.0304 16.7873 54.2914C17.3538 54.5524 17.9701 54.6875 18.5938 54.6875C19.2174 54.6875 19.8337 54.5524 20.4002 54.2914C20.9666 54.0304 21.4698 53.6497 21.875 53.1757C22.2802 53.6497 22.7834 54.0304 23.3498 54.2914C23.9163 54.5524 24.5326 54.6875 25.1562 54.6875C25.7799 54.6875 26.3962 54.5524 26.9627 54.2914C27.5291 54.0304 28.0323 53.6497 28.4375 53.1757C28.8428 53.6497 29.3459 54.0303 29.9124 54.2913C30.4788 54.5523 31.0951 54.6874 31.7188 54.6874C32.3424 54.6874 32.9587 54.5523 33.5251 54.2913C34.0916 54.0303 34.5947 53.6497 35 53.1757C35.4052 53.6497 35.9084 54.0304 36.4748 54.2914C37.0413 54.5524 37.6576 54.6875 38.2812 54.6875C38.9049 54.6875 39.5212 54.5524 40.0877 54.2914C40.6541 54.0304 41.1573 53.6497 41.5625 53.1757C41.9677 53.6497 42.4709 54.0304 43.0373 54.2914C43.6038 54.5524 44.2201 54.6875 44.8438 54.6875C45.4674 54.6875 46.0837 54.5524 46.6502 54.2914C47.2166 54.0304 47.7198 53.6497 48.125 53.1757C48.5302 53.6497 49.0334 54.0304 49.5998 54.2914C50.1663 54.5524 50.7826 54.6875 51.4062 54.6875C52.0299 54.6875 52.6462 54.5524 53.2127 54.2914C53.7791 54.0304 54.2823 53.6497 54.6875 53.1757C55.2691 53.8502 56.0435 54.3303 56.9063 54.5513C57.7691 54.7722 58.6789 54.7234 59.5131 54.4115C60.3474 54.0995 61.0659 53.5393 61.5721 52.8064C62.0782 52.0736 62.3475 51.2032 62.3438 50.3125V50.0568L65.625 52.0256V60.1562Z" fill="#468FBC"/>
<path d="M19.6875 29.5306H17.5V31.7181H19.6875V29.5306Z" fill="#468FBC"/>
<path d="M19.6875 33.9056H17.5V38.2806H19.6875V33.9056Z" fill="#468FBC"/>
</svg>
